<svg width="100" height="24" viewBox="0 0 100 24" fill="none" xmlns="http://www.w3.org/2000/svg">
<path d="M6.98844 9.40229H9.40171C9.36819 7.25716 7.60013 5.76562 4.91034 5.76562C2.25406 5.76562 0.310039 7.23202 0.318418 9.43581C0.318418 11.2122 1.57533 12.2345 3.61991 12.7373L4.94386 13.0557C6.26781 13.3825 7.02195 13.768 7.02195 14.5975C7.02195 15.5025 6.16725 16.1226 4.84331 16.1226C3.5026 16.1226 2.53059 15.5025 2.44679 14.2791H0C0.0754148 16.8851 1.94403 18.2426 4.87682 18.2342C7.83476 18.2426 9.56092 16.8181 9.5693 14.5975C9.56092 12.5781 8.01073 11.5223 5.93263 11.0447L4.84331 10.7765C3.79588 10.5419 2.8909 10.1481 2.89928 9.26822C2.90766 8.4638 3.61991 7.87724 4.89358 7.87724C6.12536 7.87724 6.88788 8.43866 6.98844 9.40229Z" fill="#F04C4C"/>
<path d="M18.7196 5.93321V13.6088C18.728 15.0081 17.7392 16.0137 16.2226 16.022C14.7226 16.0137 13.7339 15.0081 13.7255 13.6088V5.93321H11.2117V13.8099C11.2117 16.4661 13.206 18.2426 16.2226 18.2342C19.2308 18.2426 21.2502 16.4661 21.2502 13.8099V5.93321H18.7196Z" fill="#F04C4C"/>
<path d="M23.2948 18.0666H25.8086V14.1115H27.9873C30.786 14.1115 32.3948 12.444 32.3948 10.0224C32.3948 7.63424 30.8111 5.93321 28.0543 5.93321H23.2948V18.0666ZM25.8086 12.0837V7.99455H27.5851C29.0766 8.00293 29.8056 8.81573 29.7972 10.0224C29.8056 11.2458 29.0766 12.0837 27.5851 12.0837H25.8086Z" fill="#F04C4C"/>
<path d="M33.9869 18.0666H42.1485V15.9885H36.5008V13.039H41.7128V10.9609H36.5008V8.01131H42.1317V5.93321H33.9869V18.0666Z" fill="#F04C4C"/>
<path d="M44.0925 18.0666H46.6063V13.7596H48.5252L50.8463 18.0666H53.6283L51.0474 13.349C52.43 12.7541 53.1926 11.5474 53.1926 9.8883C53.1926 7.48341 51.6088 5.93321 48.852 5.93321H44.0925V18.0666ZM46.6063 11.715V7.99455H48.3828C49.8743 8.00293 50.6033 8.6649 50.5949 9.8883C50.6033 11.1033 49.8743 11.715 48.3828 11.715H46.6063Z" fill="#F04C4C"/>
<path d="M63.0468 10.1564H65.5941C65.2589 7.36609 63.1473 5.76562 60.3486 5.76562C57.1476 5.76562 54.7009 8.03645 54.7009 11.9999C54.7009 15.9466 57.1058 18.2342 60.3486 18.2342C63.4322 18.2342 65.3176 16.1896 65.5941 13.9439L63.0468 13.9272C62.8038 15.2427 61.7647 15.9969 60.3821 16.0053C58.5303 15.9969 57.265 14.6143 57.265 11.9999C57.265 9.44419 58.5135 8.00293 60.3989 7.99455C61.815 8.00293 62.8457 8.81573 63.0468 10.1564Z" fill="#F04C4C"/>
<path d="M67.3538 18.0666H69.8676V13.039H75.1299V18.0666H77.6605V5.93321H75.1299V10.9609H69.8676V5.93321H67.3538V18.0666Z" fill="#F04C4C"/>
<path d="M81.7329 18.0666L82.6462 15.2679H87.037L87.9504 18.0666H90.6486L86.4589 5.93321H83.2244L79.0179 18.0666H81.7329ZM83.2831 13.3071L84.7997 8.6649H84.8835L86.4002 13.3071H83.2831Z" fill="#F04C4C"/>
<path d="M90.062 8.01131H93.7825V18.0666H96.2795V8.01131H100V5.93321H90.062V8.01131Z" fill="#F04C4C"/>
</svg>
