<svg width="1em" height="1em" viewBox="0 0 14 14" fill="none" xmlns="http://www.w3.org/2000/svg">
  <g fill="currentColor">
    <rect x="4.20004" y="1.40039" width="5.6" height="1.2" rx="0.6" />
    <mask id="path-2-inside-1_23046_6486" fill="white">
      <path fill-rule="evenodd" clip-rule="evenodd"
        d="M2 3.40039C1.66863 3.40039 1.4 3.66902 1.4 4.00039C1.4 4.33176 1.66863 4.60039 2 4.60039H2.60007V11.0004C2.60007 11.884 3.31642 12.6004 4.20007 12.6004H9.80007C10.6837 12.6004 11.4001 11.884 11.4001 11.0004V4.60039H12C12.3314 4.60039 12.6 4.33176 12.6 4.00039C12.6 3.66902 12.3314 3.40039 12 3.40039H11.4001H10.2001H3.80007H2.60007H2ZM10.2001 4.60039H3.80007V11.0004C3.80007 11.2213 3.97916 11.4004 4.20007 11.4004H9.80007C10.021 11.4004 10.2001 11.2213 10.2001 11.0004V4.60039Z" />
    </mask>
    <path
      d="M2.60007 4.60039H4.4215V2.77896H2.60007V4.60039ZM11.4001 4.60039V2.77896H9.57864V4.60039H11.4001ZM10.2001 4.60039H12.0215V2.77896H10.2001V4.60039ZM3.80007 4.60039V2.77896H1.97864V4.60039H3.80007ZM3.22143 4.00039C3.22143 4.67497 2.67458 5.22182 2 5.22182V1.57896C0.662684 1.57896 -0.421427 2.66307 -0.421427 4.00039H3.22143ZM2 2.77896C2.67458 2.77896 3.22143 3.32582 3.22143 4.00039H-0.421427C-0.421427 5.33771 0.662682 6.42182 2 6.42182V2.77896ZM2.60007 2.77896H2V6.42182H2.60007V2.77896ZM0.778643 4.60039V11.0004H4.4215V4.60039H0.778643ZM0.778643 11.0004C0.778643 12.89 2.31047 14.4218 4.20007 14.4218V10.779C4.32236 10.779 4.4215 10.8781 4.4215 11.0004H0.778643ZM4.20007 14.4218H9.80007V10.779H4.20007V14.4218ZM9.80007 14.4218C11.6897 14.4218 13.2215 12.89 13.2215 11.0004H9.57864C9.57864 10.8781 9.67778 10.779 9.80007 10.779V14.4218ZM13.2215 11.0004V4.60039H9.57864V11.0004H13.2215ZM12 2.77896H11.4001V6.42182H12V2.77896ZM10.7786 4.00039C10.7786 3.32581 11.3254 2.77896 12 2.77896V6.42182C13.3373 6.42182 14.4214 5.33771 14.4214 4.00039H10.7786ZM12 5.22182C11.3254 5.22182 10.7786 4.67497 10.7786 4.00039H14.4214C14.4214 2.66307 13.3373 1.57896 12 1.57896V5.22182ZM11.4001 5.22182H12V1.57896H11.4001V5.22182ZM11.4001 1.57896H10.2001V5.22182H11.4001V1.57896ZM10.2001 1.57896H3.80007V5.22182H10.2001V1.57896ZM3.80007 1.57896H2.60007V5.22182H3.80007V1.57896ZM2 5.22182H2.60007V1.57896H2V5.22182ZM10.2001 2.77896H3.80007V6.42182H10.2001V2.77896ZM1.97864 4.60039V11.0004H5.6215V4.60039H1.97864ZM1.97864 11.0004C1.97864 12.2273 2.97321 13.2218 4.20007 13.2218V9.57896C4.9851 9.57896 5.6215 10.2154 5.6215 11.0004H1.97864ZM4.20007 13.2218H9.80007V9.57896H4.20007V13.2218ZM9.80007 13.2218C11.0269 13.2218 12.0215 12.2272 12.0215 11.0004H8.37864C8.37864 10.2154 9.01503 9.57896 9.80007 9.57896V13.2218ZM12.0215 11.0004V4.60039H8.37864V11.0004H12.0215Z"
      mask="url(#path-2-inside-1_23046_6486)" />
    <path fill-rule="evenodd" clip-rule="evenodd"
      d="M6.00018 5.40039C6.33155 5.40039 6.60018 5.66902 6.60018 6.00039L6.60018 9.60039C6.60018 9.93176 6.33155 10.2004 6.00018 10.2004C5.66881 10.2004 5.40018 9.93176 5.40018 9.60039L5.40018 6.00039C5.40018 5.66902 5.66881 5.40039 6.00018 5.40039Z" />
    <path fill-rule="evenodd" clip-rule="evenodd"
      d="M8.00005 5.40039C8.33142 5.40039 8.60005 5.66902 8.60005 6.00039L8.60005 9.60039C8.60005 9.93176 8.33142 10.2004 8.00005 10.2004C7.66868 10.2004 7.40005 9.93176 7.40005 9.60039L7.40005 6.00039C7.40005 5.66902 7.66868 5.40039 8.00005 5.40039Z" />
  </g>
</svg>
