<svg width="14" height="14" viewBox="0 0 14 14" fill="none" xmlns="http://www.w3.org/2000/svg">
<g opacity="0.65">
<path fill-rule="evenodd" clip-rule="evenodd" d="M1.09912 7.37707C1.09912 6.99407 1.41116 6.68359 1.79609 6.68359H12.1101C12.4951 6.68359 12.8071 6.99407 12.8071 7.37707V12.8504C12.8071 13.4853 12.2898 13.9999 11.6517 13.9999H2.25449C1.6164 13.9999 1.09912 13.4853 1.09912 12.8504L1.09912 7.37707ZM7.76468 12.613H11.4132V8.07055H7.76468V12.613ZM6.37075 8.07055V12.613H2.49306L2.49306 8.07055H6.37075Z" fill="url(#paint0_linear_4012_21171)"/>
<path fill-rule="evenodd" clip-rule="evenodd" d="M7.58242 0.562649C8.33236 -0.18354 9.55498 -0.190089 10.3071 0.558297C11.0593 1.30674 11.0526 2.52323 10.3028 3.26936C10.2191 3.35261 10.1219 3.4262 10.0214 3.49092H12.8446C13.4827 3.49092 14 4.00561 14 4.6405V6.92104C14 7.55594 13.4827 8.07062 12.8446 8.07062L1.15537 8.07062C0.517278 8.07062 0 7.55594 0 6.92104L0 4.6405C0 4.00561 0.517276 3.49092 1.15537 3.49092L3.64044 3.49092C3.54029 3.42612 3.44361 3.35256 3.36003 3.2694C2.61008 2.52321 2.6035 1.30671 3.35565 0.558329C4.10786 -0.190115 5.33048 -0.183449 6.08036 0.562681C6.26435 0.745743 6.40136 0.993654 6.49997 1.20003C6.60622 1.4224 6.70199 1.67102 6.78392 1.90734C6.79988 1.9534 6.81548 1.99944 6.83067 2.04524C6.84549 2.00044 6.86069 1.9554 6.87626 1.91034C6.95787 1.67414 7.05356 1.42533 7.16035 1.20223C7.25983 0.994378 7.39752 0.746621 7.58242 0.562649ZM5.60782 2.79994C5.56565 2.65932 5.51793 2.5089 5.46617 2.3596C5.39338 2.14964 5.31673 1.95389 5.24107 1.79554C5.20341 1.71673 5.1693 1.65417 5.1399 1.60733C5.11296 1.56442 5.09717 1.54628 5.09482 1.54359C5.09447 1.54318 5.09442 1.54313 5.0947 1.54341C4.88448 1.33424 4.54447 1.33692 4.34132 1.53906C4.13817 1.74118 4.13546 2.07949 4.34569 2.28867C4.34564 2.28862 4.34568 2.28866 4.3458 2.28876C4.34747 2.29026 4.36606 2.30695 4.41265 2.336C4.46005 2.36556 4.52306 2.39966 4.60217 2.43715C4.76118 2.51249 4.95733 2.58845 5.16768 2.6604C5.31691 2.71145 5.4672 2.75842 5.60782 2.79994ZM6.30303 4.87787L1.39394 4.87787L1.39394 6.68367L6.30303 6.68367V4.87787ZM7.69697 6.68367L12.6061 6.68367V4.87787L7.69697 4.87787V6.68367ZM8.05424 2.79919C8.19556 2.75723 8.34674 2.70974 8.49679 2.65825C8.7078 2.58583 8.90454 2.50955 9.06369 2.43427C9.14289 2.3968 9.20577 2.36286 9.25284 2.33361C9.29597 2.30681 9.3142 2.29109 9.31691 2.28876C9.31732 2.2884 9.31737 2.28836 9.31709 2.28864C9.52732 2.07947 9.52462 1.74116 9.32146 1.53902C9.11832 1.3369 8.77831 1.33419 8.56808 1.54338C8.56812 1.54333 8.56809 1.54336 8.56799 1.54348C8.56648 1.54514 8.54971 1.56364 8.52051 1.61C8.4908 1.65717 8.45653 1.71986 8.41886 1.79857C8.34313 1.95678 8.26679 2.15195 8.19448 2.36125C8.14317 2.50973 8.09596 2.65927 8.05424 2.79919Z" fill="url(#paint1_linear_4012_21171)"/>
</g>
<defs>
<linearGradient id="paint0_linear_4012_21171" x1="3.60798" y1="9.92369" x2="5.89523" y2="15.1525" gradientUnits="userSpaceOnUse">
<stop stop-color="#C071FF"/>
<stop offset="1" stop-color="#FB992D"/>
</linearGradient>
<linearGradient id="paint1_linear_4012_21171" x1="3" y1="3.57413" x2="5.38459" y2="9.48344" gradientUnits="userSpaceOnUse">
<stop stop-color="#C071FF"/>
<stop offset="1" stop-color="#FB992D"/>
</linearGradient>
</defs>
</svg>
