<svg width="1em" height="1em" viewBox="0 0 14 14" fill="none" xmlns="http://www.w3.org/2000/svg">
  <g id="image-03" opacity="0.65">
    <g id="Icon">
      <path
        d="M1 3.25C1 2.00736 2.00736 1 3.25 1H10.75C11.9926 1 13 2.00736 13 3.25V10.75C13 11.9926 11.9926 13 10.75 13H3.25C2.00736 13 1 11.9926 1 10.75V3.25Z"
        fill="url(#paint0_linear_26174_4794)" />
      <path
        d="M5.5 4.375C5.5 4.99632 4.99632 5.5 4.375 5.5C3.75368 5.5 3.25 4.99632 3.25 4.375C3.25 3.75368 3.75368 3.25 4.375 3.25C4.99632 3.25 5.5 3.75368 5.5 4.375Z"
        fill="url(#paint1_linear_26174_4794)" />
      <path
        d="M1.39645 11.5214C1.20118 11.7167 1.20118 12.0333 1.39645 12.2286C1.59171 12.4238 1.90829 12.4238 2.10355 12.2286L1.39645 11.5214ZM4.75 8.875L5.10355 8.52145C4.90829 8.32619 4.59171 8.32619 4.39645 8.52145L4.75 8.875ZM6.25 10.375L5.89645 10.7286C5.99021 10.8223 6.11739 10.875 6.25 10.875C6.38261 10.875 6.50979 10.8223 6.60355 10.7286L6.25 10.375ZM9.625 7L9.97855 6.64645C9.88478 6.55268 9.75761 6.5 9.625 6.5C9.49239 6.5 9.36521 6.55268 9.27145 6.64645L9.625 7ZM12.2714 10.3536C12.4667 10.5488 12.7833 10.5488 12.9786 10.3536C13.1738 10.1583 13.1738 9.84171 12.9786 9.64645L12.2714 10.3536ZM2.10355 12.2286L5.10355 9.22855L4.39645 8.52145L1.39645 11.5214L2.10355 12.2286ZM4.39645 9.22855L5.89645 10.7286L6.60355 10.0214L5.10355 8.52145L4.39645 9.22855ZM6.60355 10.7286L9.97855 7.35355L9.27145 6.64645L5.89645 10.0214L6.60355 10.7286ZM9.27145 7.35355L12.2714 10.3536L12.9786 9.64645L9.97855 6.64645L9.27145 7.35355ZM3.25 1.5H10.75V0.5H3.25V1.5ZM12.5 3.25V10.75H13.5V3.25H12.5ZM10.75 12.5H3.25V13.5H10.75V12.5ZM1.5 10.75V3.25H0.5V10.75H1.5ZM3.25 12.5C2.2835 12.5 1.5 11.7165 1.5 10.75H0.5C0.5 12.2688 1.73122 13.5 3.25 13.5V12.5ZM12.5 10.75C12.5 11.7165 11.7165 12.5 10.75 12.5V13.5C12.2688 13.5 13.5 12.2688 13.5 10.75H12.5ZM10.75 1.5C11.7165 1.5 12.5 2.2835 12.5 3.25H13.5C13.5 1.73122 12.2688 0.5 10.75 0.5V1.5ZM3.25 0.5C1.73122 0.5 0.5 1.73122 0.5 3.25H1.5C1.5 2.2835 2.2835 1.5 3.25 1.5V0.5ZM5 4.375C5 4.72018 4.72018 5 4.375 5V6C5.27246 6 6 5.27246 6 4.375H5ZM4.375 5C4.02982 5 3.75 4.72018 3.75 4.375H2.75C2.75 5.27246 3.47754 6 4.375 6V5ZM3.75 4.375C3.75 4.02982 4.02982 3.75 4.375 3.75V2.75C3.47754 2.75 2.75 3.47754 2.75 4.375H3.75ZM4.375 3.75C4.72018 3.75 5 4.02982 5 4.375H6C6 3.47754 5.27246 2.75 4.375 2.75V3.75Z"
        fill="currentColor" />
    </g>
  </g>
  <defs>
    <linearGradient id="paint0_linear_26174_4794" x1="7" y1="1" x2="7" y2="13" gradientUnits="userSpaceOnUse">
      <stop stop-color="#FB992E" />
      <stop offset="1" stop-color="#E72A00" />
    </linearGradient>
    <linearGradient id="paint1_linear_26174_4794" x1="7" y1="1" x2="7" y2="13" gradientUnits="userSpaceOnUse">
      <stop stop-color="#FB992E" />
      <stop offset="1" stop-color="#E72A00" />
    </linearGradient>
  </defs>
</svg>
