<svg width="1em" height="1em" viewBox="0 0 72 72" fill="none" xmlns="http://www.w3.org/2000/svg">
  <path
    d="M67.1998 33.3001V17.9998C67.1998 10.7096 61.2899 4.7998 53.9998 4.7998H17.9998C10.7096 4.7998 4.7998 10.7096 4.7998 17.9998V33.3001H9.5998V17.9998C9.5998 13.3606 13.3606 9.5998 17.9998 9.5998H53.9998C58.639 9.5998 62.3998 13.3606 62.3998 17.9998V33.3001H67.1998Z"
    fill="currentColor" />
  <path fill-rule="evenodd" clip-rule="evenodd"
    d="M23.3998 15.5998C19.092 15.5998 15.5998 19.092 15.5998 23.3998C15.5998 27.7076 19.092 31.1998 23.3998 31.1998C27.7076 31.1998 31.1998 27.7076 31.1998 23.3998C31.1998 19.092 27.7076 15.5998 23.3998 15.5998ZM20.3998 23.3998C20.3998 21.7429 21.7429 20.3998 23.3998 20.3998C25.0567 20.3998 26.3998 21.7429 26.3998 23.3998C26.3998 25.0567 25.0567 26.3998 23.3998 26.3998C21.7429 26.3998 20.3998 25.0567 20.3998 23.3998Z"
    fill="currentColor" />
  <path fill-rule="evenodd" clip-rule="evenodd"
    d="M66.4857 50.8502L66.3178 53.795C65.8101 61.0675 59.5031 66.5515 52.2307 66.0438L16.3181 63.537C11.0484 63.1692 6.74268 59.9688 4.9502 55.3502L9.12455 52.5561L23.4717 40.0812C24.4719 39.2115 25.9878 39.3173 26.8576 40.3175L31.9639 46.1903L47.4416 32.7325C47.9219 32.3148 48.5485 32.1051 49.1835 32.1494C49.8184 32.1937 50.4098 32.4885 50.8274 32.9688L62.0582 45.8851L66.4857 50.8502ZM60.5676 51.4861C60.8596 51.822 61.2245 52.057 61.6183 52.1881L61.5294 53.4608C61.2064 58.0887 57.1928 61.5785 52.5649 61.2555L16.6523 58.7487C14.7438 58.6155 13.0288 57.8546 11.695 56.6818L24.8101 45.2782L29.9165 51.1509C30.7862 52.1512 32.3021 52.257 33.3024 51.3873L48.78 37.9294L60.5676 51.4861Z"
    fill="currentColor" />
</svg>
