<svg width="1em" height="1em" viewBox="0 0 30 30" fill="none" xmlns="http://www.w3.org/2000/svg">
<path opacity="0.25" d="M3.79289 24.0429C3.40237 24.4334 3.40237 25.0666 3.79289 25.4571C4.18342 25.8476 4.81658 25.8476 5.20711 25.4571L3.79289 24.0429ZM10.5 18.75L11.2071 18.0429C10.8166 17.6524 10.1834 17.6524 9.79289 18.0429L10.5 18.75ZM13.5 21.75L12.7929 22.4571C13.1834 22.8476 13.8166 22.8476 14.2071 22.4571L13.5 21.75ZM20.25 15L20.9571 14.2929C20.7696 14.1054 20.5152 14 20.25 14C19.9848 14 19.7304 14.1054 19.5429 14.2929L20.25 15ZM25.5429 21.7071C25.9334 22.0976 26.5666 22.0976 26.9571 21.7071C27.3476 21.3166 27.3476 20.6834 26.9571 20.2929L25.5429 21.7071ZM5.20711 25.4571L11.2071 19.4571L9.79289 18.0429L3.79289 24.0429L5.20711 25.4571ZM9.79289 19.4571L12.7929 22.4571L14.2071 21.0429L11.2071 18.0429L9.79289 19.4571ZM14.2071 22.4571L20.9571 15.7071L19.5429 14.2929L12.7929 21.0429L14.2071 22.4571ZM19.5429 15.7071L25.5429 21.7071L26.9571 20.2929L20.9571 14.2929L19.5429 15.7071ZM7.5 4H22.5V2H7.5V4ZM26 7.5V22.5H28V7.5H26ZM22.5 26H7.5V28H22.5V26ZM4 22.5V7.5H2V22.5H4ZM7.5 26C5.567 26 4 24.433 4 22.5H2C2 25.5376 4.46243 28 7.5 28V26ZM26 22.5C26 24.433 24.433 26 22.5 26V28C25.5376 28 28 25.5376 28 22.5H26ZM22.5 4C24.433 4 26 5.567 26 7.5H28C28 4.46243 25.5376 2 22.5 2V4ZM7.5 2C4.46243 2 2 4.46243 2 7.5H4C4 5.567 5.567 4 7.5 4V2ZM11 9.75C11 10.4404 10.4404 11 9.75 11V13C11.5449 13 13 11.5449 13 9.75H11ZM9.75 11C9.05964 11 8.5 10.4404 8.5 9.75H6.5C6.5 11.5449 7.95507 13 9.75 13V11ZM8.5 9.75C8.5 9.05964 9.05964 8.5 9.75 8.5V6.5C7.95507 6.5 6.5 7.95507 6.5 9.75H8.5ZM9.75 8.5C10.4404 8.5 11 9.05964 11 9.75H13C13 7.95507 11.5449 6.5 9.75 6.5V8.5Z" fill="black"/>
<path d="M12 9.75C12 10.9926 10.9926 12 9.75 12C8.50736 12 7.5 10.9926 7.5 9.75C7.5 8.50736 8.50736 7.5 9.75 7.5C10.9926 7.5 12 8.50736 12 9.75Z" stroke="#FB992D" stroke-width="2"/>
</svg>
