<svg width="1em" height="1em" viewBox="0 0 24 24" fill="none" xmlns="http://www.w3.org/2000/svg">
<path fill-rule="evenodd" clip-rule="evenodd" d="M7.6793 6.52331C7.6793 4.28976 9.52933 2.42431 11.8793 2.42431C14.2293 2.42431 16.0793 4.28976 16.0793 6.52331C16.0793 8.75685 14.2293 10.6223 11.8793 10.6223C11.7561 10.6223 11.6372 10.6411 11.5254 10.6759C10.1115 10.7324 8.71736 11.0412 7.4078 11.5891C5.95189 12.1983 4.62902 13.0911 3.51472 14.2167C2.40041 15.3423 1.5165 16.6786 0.913445 18.1492C0.310389 19.6199 0 21.1961 0 22.788C0 23.4574 0.537258 24.0001 1.2 24.0001H22.8C23.4627 24.0001 24 23.4574 24 22.788C24 21.1961 23.6896 19.6199 23.0866 18.1492C22.4835 16.6786 21.5996 15.3423 20.4853 14.2167C20.0167 13.7434 19.2569 13.7434 18.7882 14.2167C18.3196 14.6901 18.3196 15.4576 18.7882 15.931C19.6797 16.8314 20.3868 17.9005 20.8692 19.077C21.1978 19.8783 21.4178 20.7188 21.5247 21.5758H2.47529C2.58218 20.7188 2.80216 19.8783 3.13076 19.077C3.6132 17.9005 4.32033 16.8314 5.21177 15.931C6.10322 15.0305 7.16151 14.3162 8.32624 13.8289C9.49096 13.3415 10.7393 13.0907 12 13.0907C12.1337 13.0907 12.2624 13.0686 12.3825 13.0278C15.7669 12.7744 18.4793 9.98625 18.4793 6.52331C18.4793 2.89031 15.494 0 11.8793 0C8.26459 0 5.2793 2.89031 5.2793 6.52331C5.2793 7.19276 5.81656 7.73546 6.4793 7.73546C7.14204 7.73546 7.6793 7.19276 7.6793 6.52331Z" fill="white"/>
<path fill-rule="evenodd" clip-rule="evenodd" d="M7.6793 6.52331C7.6793 4.28976 9.52933 2.42431 11.8793 2.42431C14.2293 2.42431 16.0793 4.28976 16.0793 6.52331C16.0793 8.75685 14.2293 10.6223 11.8793 10.6223C11.7561 10.6223 11.6372 10.6411 11.5254 10.6759C10.1115 10.7324 8.71736 11.0412 7.4078 11.5891C5.95189 12.1983 4.62902 13.0911 3.51472 14.2167C2.40041 15.3423 1.5165 16.6786 0.913445 18.1492C0.310389 19.6199 0 21.1961 0 22.788C0 23.4574 0.537258 24.0001 1.2 24.0001H22.8C23.4627 24.0001 24 23.4574 24 22.788C24 21.1961 23.6896 19.6199 23.0866 18.1492C22.4835 16.6786 21.5996 15.3423 20.4853 14.2167C20.0167 13.7434 19.2569 13.7434 18.7882 14.2167C18.3196 14.6901 18.3196 15.4576 18.7882 15.931C19.6797 16.8314 20.3868 17.9005 20.8692 19.077C21.1978 19.8783 21.4178 20.7188 21.5247 21.5758H2.47529C2.58218 20.7188 2.80216 19.8783 3.13076 19.077C3.6132 17.9005 4.32033 16.8314 5.21177 15.931C6.10322 15.0305 7.16151 14.3162 8.32624 13.8289C9.49096 13.3415 10.7393 13.0907 12 13.0907C12.1337 13.0907 12.2624 13.0686 12.3825 13.0278C15.7669 12.7744 18.4793 9.98625 18.4793 6.52331C18.4793 2.89031 15.494 0 11.8793 0C8.26459 0 5.2793 2.89031 5.2793 6.52331C5.2793 7.19276 5.81656 7.73546 6.4793 7.73546C7.14204 7.73546 7.6793 7.19276 7.6793 6.52331Z" fill="url(#paint0_linear_4012_21323)"/>
<defs>
<linearGradient id="paint0_linear_4012_21323" x1="5.14286" y1="10.6286" x2="14.7429" y2="24.3429" gradientUnits="userSpaceOnUse">
<stop stop-color="#C071FF"/>
<stop offset="1" stop-color="#FB992D"/>
</linearGradient>
</defs>
</svg>
