<svg width="1em" height="1em" viewBox="0 0 24 24" fill="none" xmlns="http://www.w3.org/2000/svg">
<path fill-rule="evenodd" clip-rule="evenodd" d="M6.2476 3.58815C6.2476 1.6072 7.8548 0 9.83575 0C11.8167 0 13.4239 1.6072 13.4239 3.58815V4.16506H16.604C18.2986 4.16506 19.6715 5.53799 19.6715 7.23258V10.4127H20.2484C22.2294 10.4127 23.8366 12.0199 23.8366 14.0008C23.8366 15.9818 22.2294 17.589 20.2484 17.589H19.6715V20.769C19.6715 22.4636 18.2986 23.8366 16.604 23.8366H11.6622V21.2897C11.6622 20.2822 10.8432 19.4632 9.83575 19.4632C8.82825 19.4632 8.00931 20.2822 8.00931 21.2897V23.8366H3.06752C1.37293 23.8366 0 22.4636 0 20.769L0.00651647 15.8272H2.54688C3.55437 15.8272 4.37331 15.0083 4.37331 14.0008C4.37331 12.9933 3.55437 12.1744 2.54688 12.1744H0.00389324L0.0104114 7.23258C0.0104114 7.23234 0.0104115 7.2321 0.0104115 7.23186C0.0107972 5.54404 1.36675 4.16506 3.06752 4.16506H6.2476V3.58815ZM9.83575 1.96996C8.94278 1.96996 8.21756 2.69518 8.21756 3.58815V6.13502H3.06752C2.46734 6.13502 1.98037 6.61952 1.98037 7.23258L1.97646 10.2044H2.54688C4.64235 10.2044 6.34328 11.9053 6.34328 14.0008C6.34328 16.0963 4.64235 17.7972 2.54688 17.7972H1.97388L1.96996 20.769C1.96996 20.7692 1.96996 20.7694 1.96996 20.7696C1.97026 21.3759 2.46109 21.8666 3.06752 21.8666H6.03935V21.2897C6.03935 19.1942 7.74027 17.4933 9.83575 17.4933C11.9312 17.4933 13.6321 19.1942 13.6321 21.2897V21.8666H16.604C17.2106 21.8666 17.7015 21.3756 17.7015 20.769V15.619H20.2484C21.1414 15.619 21.8666 14.8938 21.8666 14.0008C21.8666 13.1078 21.1414 12.3826 20.2484 12.3826H17.7016V7.23258C17.7016 6.62597 17.2106 6.13502 16.604 6.13502H11.4539V3.58815C11.4539 2.69518 10.7287 1.96996 9.83575 1.96996Z" fill="white"/>
<path fill-rule="evenodd" clip-rule="evenodd" d="M6.2476 3.58815C6.2476 1.6072 7.8548 0 9.83575 0C11.8167 0 13.4239 1.6072 13.4239 3.58815V4.16506H16.604C18.2986 4.16506 19.6715 5.53799 19.6715 7.23258V10.4127H20.2484C22.2294 10.4127 23.8366 12.0199 23.8366 14.0008C23.8366 15.9818 22.2294 17.589 20.2484 17.589H19.6715V20.769C19.6715 22.4636 18.2986 23.8366 16.604 23.8366H11.6622V21.2897C11.6622 20.2822 10.8432 19.4632 9.83575 19.4632C8.82825 19.4632 8.00931 20.2822 8.00931 21.2897V23.8366H3.06752C1.37293 23.8366 0 22.4636 0 20.769L0.00651647 15.8272H2.54688C3.55437 15.8272 4.37331 15.0083 4.37331 14.0008C4.37331 12.9933 3.55437 12.1744 2.54688 12.1744H0.00389324L0.0104114 7.23258C0.0104114 7.23234 0.0104115 7.2321 0.0104115 7.23186C0.0107972 5.54404 1.36675 4.16506 3.06752 4.16506H6.2476V3.58815ZM9.83575 1.96996C8.94278 1.96996 8.21756 2.69518 8.21756 3.58815V6.13502H3.06752C2.46734 6.13502 1.98037 6.61952 1.98037 7.23258L1.97646 10.2044H2.54688C4.64235 10.2044 6.34328 11.9053 6.34328 14.0008C6.34328 16.0963 4.64235 17.7972 2.54688 17.7972H1.97388L1.96996 20.769C1.96996 20.7692 1.96996 20.7694 1.96996 20.7696C1.97026 21.3759 2.46109 21.8666 3.06752 21.8666H6.03935V21.2897C6.03935 19.1942 7.74027 17.4933 9.83575 17.4933C11.9312 17.4933 13.6321 19.1942 13.6321 21.2897V21.8666H16.604C17.2106 21.8666 17.7015 21.3756 17.7015 20.769V15.619H20.2484C21.1414 15.619 21.8666 14.8938 21.8666 14.0008C21.8666 13.1078 21.1414 12.3826 20.2484 12.3826H17.7016V7.23258C17.7016 6.62597 17.2106 6.13502 16.604 6.13502H11.4539V3.58815C11.4539 2.69518 10.7287 1.96996 9.83575 1.96996Z" fill="url(#paint0_linear_4012_21329)"/>
<defs>
<linearGradient id="paint0_linear_4012_21329" x1="5.10783" y1="10.5562" x2="14.6425" y2="24.1771" gradientUnits="userSpaceOnUse">
<stop stop-color="#C071FF"/>
<stop offset="1" stop-color="#FB992D"/>
</linearGradient>
</defs>
</svg>
