<svg width="1em" height="1em" viewBox="0 0 24 24" fill="none" xmlns="http://www.w3.org/2000/svg">
<path fill-rule="evenodd" clip-rule="evenodd" d="M12.8307 1.82616C13.978 0.641254 15.5149 -0.0145786 17.1104 0.000245959C18.7059 0.0150705 20.2319 0.699361 21.3598 1.90539C22.4877 3.11139 23.1273 4.74259 23.1412 6.4476C23.155 8.15262 22.542 9.79544 21.4339 11.0222L21.4218 11.0357L18.377 14.2911C18.3769 14.2911 18.377 14.291 18.377 14.2911C17.7603 14.9507 17.018 15.461 16.2006 15.787C15.3831 16.1131 14.5096 16.2474 13.6392 16.1807C12.7689 16.1141 11.9222 15.8481 11.1566 15.4008C10.391 14.9535 9.72435 14.3355 9.20189 13.5886C8.86826 13.1117 8.95973 12.4362 9.40622 12.0798C9.8527 11.7234 10.4851 11.8211 10.8187 12.298C11.168 12.7973 11.6135 13.2103 12.1251 13.5092C12.6366 13.808 13.2022 13.9857 13.7836 14.0302C14.3649 14.0747 14.9484 13.985 15.4945 13.7672C16.0406 13.5494 16.5366 13.2085 16.9488 12.7676L19.9872 9.5188C20.7242 8.6995 21.1321 7.60377 21.1228 6.46632C21.1136 5.32592 20.6858 4.23525 19.9319 3.42916C19.178 2.62311 18.1585 2.16609 17.0929 2.15618C16.0295 2.1463 15.0048 2.5824 14.2386 3.37108L12.4983 5.22101C12.1033 5.64099 11.4643 5.63934 11.0711 5.21733C10.6779 4.79533 10.6795 4.11277 11.0746 3.6928L12.8307 1.82616ZM7.87979 7.9292C8.69726 7.60314 9.57079 7.46887 10.4411 7.53552C11.3114 7.60217 12.1581 7.86817 12.9237 8.31544C13.6894 8.7627 14.356 9.38075 14.8785 10.1276C15.2121 10.6045 15.1206 11.2801 14.6741 11.6364C14.2277 11.9928 13.5952 11.8951 13.2616 11.4182C12.9123 10.9189 12.4668 10.5059 11.9553 10.207C11.4437 9.90821 10.8781 9.73054 10.2968 9.68602C9.71545 9.6415 9.13196 9.73118 8.58586 9.94901C8.03975 10.1668 7.54376 10.5077 7.13157 10.9486L4.09319 14.1974C3.35614 15.0167 2.94828 16.1125 2.95752 17.2499C2.96679 18.3903 3.39459 19.481 4.14847 20.2871C4.90231 21.0931 5.92187 21.5501 6.98749 21.56C8.05036 21.5699 9.07462 21.1342 9.8408 20.3462L11.5698 18.4974C11.9637 18.0762 12.6027 18.0759 12.997 18.4967C13.3913 18.9174 13.3916 19.6 12.9977 20.0212L11.2498 21.8902C10.1024 23.0751 8.56543 23.7308 6.96994 23.716C5.37445 23.7012 3.84844 23.0169 2.72052 21.8108C1.59264 20.6048 0.953051 18.9736 0.939195 17.2686C0.925338 15.5636 1.53832 13.9208 2.64642 12.694L2.6586 12.6805L5.70337 9.42512C5.70332 9.42517 5.70341 9.42508 5.70337 9.42512C6.32005 8.76553 7.06238 8.25524 7.87979 7.9292Z" fill="white"/>
<path fill-rule="evenodd" clip-rule="evenodd" d="M12.8307 1.82616C13.978 0.641254 15.5149 -0.0145786 17.1104 0.000245959C18.7059 0.0150705 20.2319 0.699361 21.3598 1.90539C22.4877 3.11139 23.1273 4.74259 23.1412 6.4476C23.155 8.15262 22.542 9.79544 21.4339 11.0222L21.4218 11.0357L18.377 14.2911C18.3769 14.2911 18.377 14.291 18.377 14.2911C17.7603 14.9507 17.018 15.461 16.2006 15.787C15.3831 16.1131 14.5096 16.2474 13.6392 16.1807C12.7689 16.1141 11.9222 15.8481 11.1566 15.4008C10.391 14.9535 9.72435 14.3355 9.20189 13.5886C8.86826 13.1117 8.95973 12.4362 9.40622 12.0798C9.8527 11.7234 10.4851 11.8211 10.8187 12.298C11.168 12.7973 11.6135 13.2103 12.1251 13.5092C12.6366 13.808 13.2022 13.9857 13.7836 14.0302C14.3649 14.0747 14.9484 13.985 15.4945 13.7672C16.0406 13.5494 16.5366 13.2085 16.9488 12.7676L19.9872 9.5188C20.7242 8.6995 21.1321 7.60377 21.1228 6.46632C21.1136 5.32592 20.6858 4.23525 19.9319 3.42916C19.178 2.62311 18.1585 2.16609 17.0929 2.15618C16.0295 2.1463 15.0048 2.5824 14.2386 3.37108L12.4983 5.22101C12.1033 5.64099 11.4643 5.63934 11.0711 5.21733C10.6779 4.79533 10.6795 4.11277 11.0746 3.6928L12.8307 1.82616ZM7.87979 7.9292C8.69726 7.60314 9.57079 7.46887 10.4411 7.53552C11.3114 7.60217 12.1581 7.86817 12.9237 8.31544C13.6894 8.7627 14.356 9.38075 14.8785 10.1276C15.2121 10.6045 15.1206 11.2801 14.6741 11.6364C14.2277 11.9928 13.5952 11.8951 13.2616 11.4182C12.9123 10.9189 12.4668 10.5059 11.9553 10.207C11.4437 9.90821 10.8781 9.73054 10.2968 9.68602C9.71545 9.6415 9.13196 9.73118 8.58586 9.94901C8.03975 10.1668 7.54376 10.5077 7.13157 10.9486L4.09319 14.1974C3.35614 15.0167 2.94828 16.1125 2.95752 17.2499C2.96679 18.3903 3.39459 19.481 4.14847 20.2871C4.90231 21.0931 5.92187 21.5501 6.98749 21.56C8.05036 21.5699 9.07462 21.1342 9.8408 20.3462L11.5698 18.4974C11.9637 18.0762 12.6027 18.0759 12.997 18.4967C13.3913 18.9174 13.3916 19.6 12.9977 20.0212L11.2498 21.8902C10.1024 23.0751 8.56543 23.7308 6.96994 23.716C5.37445 23.7012 3.84844 23.0169 2.72052 21.8108C1.59264 20.6048 0.953051 18.9736 0.939195 17.2686C0.925338 15.5636 1.53832 13.9208 2.64642 12.694L2.6586 12.6805L5.70337 9.42512C5.70332 9.42517 5.70341 9.42508 5.70337 9.42512C6.32005 8.76553 7.06238 8.25524 7.87979 7.9292Z" fill="url(#paint0_linear_4012_21317)"/>
<defs>
<linearGradient id="paint0_linear_4012_21317" x1="5.69663" y1="10.5029" x2="15.3808" y2="23.4544" gradientUnits="userSpaceOnUse">
<stop stop-color="#C071FF"/>
<stop offset="1" stop-color="#FB992D"/>
</linearGradient>
</defs>
</svg>
