<svg width="1em" height="1em" viewBox="0 0 24 24" fill="none" xmlns="http://www.w3.org/2000/svg">
<path fill-rule="evenodd" clip-rule="evenodd" d="M15 6.5H9C7.067 6.5 5.5 8.067 5.5 10V13.8182C5.5 15.7512 7.067 17.3182 9 17.3182H18.5V10C18.5 8.067 16.933 6.5 15 6.5ZM9 5C6.23857 5 4 7.23858 4 10V13.8182C4 16.5796 6.23857 18.8182 9 18.8182H18.5H20V17.3182V10C20 7.23857 17.7614 5 15 5H9ZM12 8.24973C12.4142 8.24973 12.75 8.58551 12.75 8.99973V11.1589H14.9091C15.3233 11.1589 15.6591 11.4947 15.6591 11.9089C15.6591 12.3231 15.3233 12.6589 14.9091 12.6589H12.75V14.8179C12.75 15.2321 12.4142 15.5679 12 15.5679C11.5858 15.5679 11.25 15.2321 11.25 14.8179V12.6589H9.09091C8.67669 12.6589 8.34091 12.3231 8.34091 11.9089C8.34091 11.4947 8.67669 11.1589 9.09091 11.1589H11.25V8.99973C11.25 8.58551 11.5858 8.24973 12 8.24973Z" fill="currentColor"/>
</svg>
