<svg width="24" height="24" viewBox="0 0 24 24" fill="none" xmlns="http://www.w3.org/2000/svg">
<circle cx="12" cy="12" r="12" fill="rgb(171, 104, 255)"/>
<g clip-path="url(#clip0_8668_1461)">
<path d="M10.8119 4H11.4772C11.5119 4.01096 11.5472 4.01952 11.583 4.02562C12.5766 4.13469 13.4175 4.5475 14.1177 5.25031C14.1449 5.27454 14.1769 5.29293 14.2117 5.30434C14.2465 5.31574 14.2833 5.3199 14.3198 5.31656C14.8303 5.23219 15.3391 5.225 15.8463 5.32938C18.2226 5.81938 19.636 8.11063 18.983 10.4159C18.968 10.4564 18.9651 10.5002 18.9745 10.5422C18.9839 10.5842 19.0053 10.6227 19.0362 10.6531C19.3812 11.0547 19.6455 11.505 19.7928 12.0109C19.8837 12.3234 19.9335 12.6491 20.0019 12.9688V13.4688C19.9808 13.6069 19.9597 13.7449 19.9385 13.8828C19.7079 15.4428 18.4871 16.7766 16.9404 17.1456C16.7978 17.1797 16.7316 17.245 16.6812 17.3725C16.1831 18.6342 15.2749 19.458 13.9564 19.8441C13.7163 19.9144 13.4653 19.9491 13.2192 20.0003H12.5228C12.4988 19.9911 12.4739 19.9841 12.4486 19.9794C11.4547 19.8769 10.6056 19.4794 9.9124 18.7666C9.83414 18.6862 9.7638 18.6609 9.65133 18.6809C8.6777 18.8528 7.75636 18.6941 6.90503 18.2034C5.2537 17.25 4.50693 15.4062 5.02305 13.5831C5.05061 13.4862 5.03857 13.4213 4.97204 13.3447C4.61886 12.948 4.35735 12.4803 4.20562 11.9741C4.11533 11.6659 4.06717 11.3459 4 11.0312V10.5C4.01204 10.4187 4.02471 10.3372 4.0358 10.2556C4.26614 8.57062 5.42067 7.27094 7.07929 6.83719C7.21014 6.80313 7.27699 6.74344 7.32673 6.61625C7.79469 5.43125 8.64063 4.625 9.86139 4.21438C10.1674 4.11188 10.495 4.07 10.8119 4ZM7.07548 7.95312C6.97093 7.99375 6.89236 8.02094 6.81695 8.05438C6.2175 8.31906 5.77141 8.75063 5.44634 9.30438C4.67865 10.6169 5.1181 12.4338 6.42851 13.2325C7.47406 13.8687 8.55414 14.4513 9.61109 15.0688C9.80277 15.1809 9.94154 15.1937 10.1332 15.0709C10.49 14.8419 10.8673 14.6437 11.2561 14.4216C11.187 14.38 11.1392 14.3497 11.0901 14.3216C9.8655 13.6241 8.64253 12.9241 7.41481 12.2319C7.17909 12.0991 7.06851 11.9253 7.07042 11.6528C7.07802 10.4922 7.07358 9.33125 7.07358 8.17031L7.07548 7.95312ZM10.2508 10.1512C10.3566 10.0916 10.4288 10.0512 10.5008 10.0103C11.7066 9.32281 12.9141 8.63969 14.1171 7.94781C14.3525 7.8125 14.5641 7.81 14.7986 7.94781C15.4832 8.34969 16.1733 8.74187 16.8615 9.1375C17.2477 9.35969 17.6345 9.58125 18.0714 9.83187C18.0714 9.54031 18.0905 9.28625 18.0686 9.03562C17.8861 6.95625 15.6398 5.64375 13.6919 6.6275C12.5478 7.20531 11.4554 7.88281 10.3417 8.51844C10.3024 8.54094 10.2552 8.59344 10.2546 8.63219C10.2489 9.125 10.2508 9.61844 10.2508 10.1512ZM14.4938 11.4209V11.6422C14.4938 13.0372 14.4906 14.4325 14.4966 15.8278C14.4966 16.0969 14.3943 16.2778 14.1576 16.4109C13.2832 16.9028 12.4116 17.4034 11.5406 17.9009C11.3362 18.0175 11.1322 18.1347 10.9183 18.2569C10.9646 18.2959 10.995 18.3244 11.0283 18.3491C11.8261 18.9384 12.7107 19.0819 13.6665 18.8397C14.8705 18.5341 15.8489 17.3709 15.8739 16.1591C15.9002 14.8778 15.885 13.5966 15.8844 12.3172C15.8844 12.2725 15.8625 12.2063 15.8289 12.1866C15.3971 11.9344 14.9624 11.6875 14.4938 11.4209ZM9.50622 12.5753V12.3566C9.50622 10.9872 9.51224 9.61781 9.50146 8.24844C9.49925 7.92312 9.62345 7.71719 9.90954 7.55781C10.9234 6.99281 11.9316 6.41156 12.9413 5.83625C12.9853 5.81094 13.0272 5.78188 13.0734 5.75281C13.0633 5.73675 13.0516 5.72168 13.0386 5.70781C12.9936 5.67156 12.9489 5.63469 12.9011 5.6025C12.2459 5.16188 11.527 4.98781 10.7377 5.08781C9.32277 5.26562 8.15683 6.48594 8.12547 7.88156C8.09695 9.14594 8.11564 10.4128 8.11754 11.6769C8.11754 11.7253 8.14574 11.7962 8.18344 11.8184C8.60927 12.0681 9.03984 12.3103 9.50622 12.5753ZM13.7609 13.8488C13.6586 13.9053 13.5902 13.9425 13.523 13.9803C12.3213 14.6641 11.1173 15.3441 9.91968 16.0347C9.66844 16.1797 9.4495 16.1853 9.19667 16.0387C8.1958 15.4591 7.18828 14.8912 6.18297 14.32C6.11707 14.2825 6.05022 14.2463 5.96974 14.2016C5.90647 14.543 5.9039 14.8927 5.96214 15.235C6.27897 17.1597 8.5478 18.3025 10.2907 17.3844C11.4345 16.7816 12.5456 16.1178 13.6694 15.4781C13.709 15.4556 13.7565 15.4041 13.7568 15.3653C13.7629 14.8719 13.7609 14.3784 13.7609 13.8488ZM16.9609 16.0522C17.0243 16.0309 17.0703 16.0209 17.1118 16.0013C18.1846 15.5041 18.8166 14.6759 18.9158 13.5122C19.0166 12.33 18.5464 11.3691 17.5246 10.7387C16.4474 10.0744 15.3286 9.47344 14.2295 8.84125C14.1465 8.79344 14.0873 8.8075 14.0128 8.85063C13.6399 9.06687 13.2645 9.27906 12.8903 9.49344C12.8501 9.51625 12.8124 9.54344 12.7607 9.57688C12.8124 9.61 12.8504 9.63656 12.8903 9.65938C14.1218 10.3656 15.3511 11.0759 16.5874 11.7741C16.8526 11.9237 16.9657 12.12 16.9635 12.4187C16.9549 13.5694 16.96 14.72 16.96 15.8709L16.9609 16.0522ZM13.7609 12.0056C13.7609 11.7194 13.7571 11.4328 13.7632 11.1469C13.7654 11.0419 13.7362 10.9778 13.638 10.9234C13.1273 10.6406 12.6207 10.3516 12.1147 10.0603C12.0383 10.0166 11.9807 10.0081 11.8996 10.055C11.3901 10.35 10.8784 10.6417 10.3645 10.93C10.2755 10.9797 10.2397 11.0353 10.2409 11.1384C10.2479 11.7162 10.2444 12.2947 10.2539 12.8716C10.2565 12.9074 10.2668 12.9423 10.2843 12.9738C10.3017 13.0054 10.3258 13.0329 10.355 13.0544C10.8721 13.3573 11.3932 13.6533 11.9183 13.9425C11.9469 13.9554 11.978 13.9621 12.0095 13.9621C12.041 13.9621 12.0721 13.9554 12.1008 13.9425C12.62 13.6541 13.1339 13.3562 13.6532 13.0659C13.7388 13.0178 13.7657 12.9594 13.7638 12.8656C13.7584 12.5781 13.7616 12.2919 13.7616 12.0056H13.7609Z" fill="white"/>
</g>
<defs>
<clipPath id="clip0_8668_1461">
<rect width="16" height="16" fill="white" transform="translate(4 4)"/>
</clipPath>
</defs>
</svg>
