<svg width="24" height="24" viewBox="0 0 24 24" fill="none" xmlns="http://www.w3.org/2000/svg">
<g clip-path="url(#clip0_23191_5647)">
<path d="M24 0H0V24H24V0Z" fill="white" fill-opacity="0.01"/>
<path d="M9.44472 23.9524C12.6326 24.8141 11.9757 19.549 14.5334 17.8665C16.7159 16.4309 22.2984 18.8667 23.0337 16.1465C24.6306 10.2385 21.1358 4.15452 15.2278 2.55756C9.31979 0.960605 3.23581 4.45541 1.63885 10.3634C0.0418892 16.2715 3.53669 22.3554 9.44472 23.9524Z" fill="#C02FF3"/>
<path d="M13.9456 11.5996L10.9749 8.62888L18.8933 0.710428C19.7136 -0.109917 21.0437 -0.109915 21.864 0.71043C22.6844 1.53077 22.6844 2.86082 21.864 3.68116L13.9456 11.5996Z" fill="#F8BE7D"/>
<path d="M7.39943 10.9945C7.54443 8.92615 11.3458 7.6678 12.8418 9.16375C14.3377 10.6597 14.1549 13.268 12.4334 14.9895C10.7119 16.7109 5.56866 16.4369 5.56866 16.4369C5.56866 16.4369 7.28456 12.6332 7.39943 10.9945Z" fill="#FB992D"/>
<mask id="mask0_23191_5647" style="mask-type:alpha" maskUnits="userSpaceOnUse" x="5" y="8" width="9" height="9">
<path d="M7.39943 10.9945C7.54443 8.92615 11.3458 7.6678 12.8418 9.16375C14.3377 10.6597 14.1549 13.268 12.4334 14.9895C10.7119 16.7109 5.56866 16.4369 5.56866 16.4369C5.56866 16.4369 7.28456 12.6332 7.39943 10.9945Z" fill="#FB992D"/>
</mask>
<g mask="url(#mask0_23191_5647)">
<circle cx="6.85716" cy="15.6815" r="3.42857" fill="#F8BE7D"/>
</g>
</g>
<defs>
<clipPath id="clip0_23191_5647">
<rect width="24" height="24" fill="white"/>
</clipPath>
</defs>
</svg>
