<svg width="21" height="21" viewBox="0 0 21 21" fill="none" xmlns="http://www.w3.org/2000/svg">
<path fill-rule="evenodd" clip-rule="evenodd" d="M4.77273 10.5507V5.75494L1.06034 9.48526C0.724142 9.82301 0.457461 10.224 0.275525 10.6654C0.0935892 11.1067 -3.42943e-05 11.5797 0 12.0574V20.2222H11.375C12.1767 20.2222 12.9455 19.9022 13.5124 19.3326C14.0793 18.763 14.3977 17.9904 14.3977 17.1849V10.5507H4.77273ZM4.49431 17.3448C5.17526 17.3448 5.72727 16.7901 5.72727 16.1059C5.72727 15.4216 5.17526 14.8669 4.49431 14.8669C3.81337 14.8669 3.26136 15.4216 3.26136 16.1059C3.26136 16.7901 3.81337 17.3448 4.49431 17.3448ZM11.1364 16.1059C11.1364 16.7901 10.5844 17.3448 9.90344 17.3448C9.2225 17.3448 8.67048 16.7901 8.67048 16.1059C8.67048 15.4216 9.2225 14.8669 9.90344 14.8669C10.5844 14.8669 11.1364 15.4216 11.1364 16.1059Z" fill="#EAFE87"/>
<path opacity="0.6" d="M4.77279 5.75494V10.5507H1.47961C1.35858 10.5506 1.2403 10.5144 1.13971 10.4468C1.03913 10.3791 0.960735 10.2831 0.914438 10.1707C0.868141 10.0583 0.856017 9.93469 0.879588 9.8154C0.90316 9.69611 0.961376 9.58651 1.04688 9.50044L4.77279 5.75494Z" fill="url(#paint0_linear_4782_40768)"/>
<path fill-rule="evenodd" clip-rule="evenodd" d="M16.2273 14.4673V9.6715H6.60229V3.03733C6.60229 2.23178 6.92076 1.45922 7.48763 0.889609C8.0545 0.319999 8.82335 0 9.62502 0H21V8.16481C21.0001 8.64252 20.9064 9.11554 20.7245 9.55687C20.5426 9.99821 20.2759 10.3992 19.9397 10.737L16.2273 14.4673ZM18.4704 3.91336C18.4704 3.68999 18.2913 3.50891 18.0704 3.50891C17.8495 3.50891 17.6704 3.68999 17.6704 3.91336C17.6704 6.05975 15.8062 7.8499 13.4416 7.8499C13.2207 7.8499 13.0416 8.03098 13.0416 8.25435C13.0416 8.47771 13.2207 8.65879 13.4416 8.65879C16.1903 8.65879 18.4704 6.56275 18.4704 3.91336ZM11.25 2.39444C11.25 2.04926 11.5298 1.76944 11.875 1.76944C12.2202 1.76944 12.5 2.04926 12.5 2.39444V4.93611C12.5 5.28128 12.2202 5.56111 11.875 5.56111C11.5298 5.56111 11.25 5.28128 11.25 4.93611V2.39444ZM14.625 1.76944C14.2798 1.76944 14 2.04926 14 2.39444V4.93611C14 5.28128 14.2798 5.56111 14.625 5.56111C14.9702 5.56111 15.25 5.28128 15.25 4.93611V2.39444C15.25 2.04926 14.9702 1.76944 14.625 1.76944Z" fill="white"/>
<path opacity="0.6" d="M16.2273 14.4673V9.67149H19.5221C19.6431 9.67164 19.7614 9.70783 19.862 9.77546C19.9626 9.8431 20.041 9.93914 20.0873 10.0515C20.1335 10.1639 20.1457 10.2875 20.1221 10.4068C20.0985 10.5261 20.0403 10.6357 19.9548 10.7218L16.2273 14.4673Z" fill="url(#paint1_linear_4782_40768)"/>
<defs>
<linearGradient id="paint0_linear_4782_40768" x1="2.8215" y1="10.5507" x2="2.8215" y2="5.75494" gradientUnits="userSpaceOnUse">
<stop stop-opacity="0.3"/>
<stop offset="0.24" stop-opacity="0"/>
<stop offset="0.62" stop-opacity="0"/>
<stop offset="1" stop-opacity="0"/>
</linearGradient>
<linearGradient id="paint1_linear_4782_40768" x1="18.1817" y1="14.4673" x2="18.1817" y2="9.67149" gradientUnits="userSpaceOnUse">
<stop stop-opacity="0"/>
<stop offset="0.24" stop-opacity="0"/>
<stop offset="0.62" stop-opacity="0"/>
<stop offset="1" stop-opacity="0.3"/>
</linearGradient>
</defs>
</svg>
