<svg width="332" height="120" viewBox="0 0 332 120" fill="none" xmlns="http://www.w3.org/2000/svg">
<rect width="332" height="120" rx="8" fill="url(#paint0_linear_2721_12581)"/>
<g clip-path="url(#clip0_2721_12581)">
<path fill-rule="evenodd" clip-rule="evenodd" d="M44.0799 44.6191C46.8093 44.6191 49.0628 46.6767 49.4025 49.3396L49.4025 49.8348H44.3954C44.2753 49.8348 44.1589 49.8769 44.0661 49.9538L41.9742 51.6886C41.8182 51.6147 41.644 51.5734 41.4602 51.5734C40.7927 51.5734 40.2516 52.1183 40.2516 52.7904C40.2516 53.4625 40.7927 54.0074 41.4602 54.0074C42.1277 54.0074 42.6688 53.4625 42.6688 52.7904C42.6688 52.6881 42.6563 52.5888 42.6327 52.4938L44.581 50.878H49.4025L49.4025 59.7447L39.6174 59.7447C39.4234 59.3335 39.0072 59.0492 38.525 59.0492C37.8575 59.0492 37.3164 59.5941 37.3164 60.2662C37.3164 60.9384 37.8575 61.4832 38.525 61.4832C39.0071 61.4832 39.4233 61.199 39.6173 60.7879L49.4025 60.7878L49.4025 69.6545H44.581L42.6327 68.0386C42.6563 67.9437 42.6688 67.8443 42.6688 67.742C42.6688 67.0699 42.1277 66.5251 41.4602 66.5251C40.7927 66.5251 40.2516 67.0699 40.2516 67.742C40.2516 68.4142 40.7927 68.959 41.4602 68.959C41.644 68.959 41.8182 68.9177 41.9742 68.8438L44.0661 70.5787C44.1589 70.6556 44.2753 70.6976 44.3954 70.6976H49.4025L49.4025 71.1931C49.0244 73.8618 46.7406 75.9133 43.9933 75.9133C41.461 75.9133 39.3319 74.1703 38.718 71.8077C36.881 70.9995 35.5968 69.1497 35.5968 66.9971C35.5968 66.4896 35.6682 65.9989 35.8015 65.5347C34.1591 64.6725 33.0304 62.9503 33.0006 60.959L33 60.7878C33 58.6099 34.3257 56.7438 36.2088 55.9629C35.8623 55.3228 35.6486 54.5986 35.6051 53.8285L35.6003 53.7247C35.5934 53.617 35.5899 53.5084 35.5899 53.3989C35.5899 51.241 36.9598 49.4053 38.8716 48.7255C39.453 46.3669 41.5643 44.6191 44.0799 44.6191ZM61.6743 48.7858C61.1143 46.3967 58.9885 44.6191 56.4516 44.6191C53.7222 44.6191 51.4687 46.6767 51.129 49.3396V71.1931C51.5071 73.8618 53.7909 75.9133 56.5382 75.9133C59.0705 75.9133 61.1996 74.1703 61.8135 71.8077C63.6505 70.9995 64.9346 69.1497 64.9346 66.9971C64.9346 66.4896 64.8633 65.9989 64.73 65.5347C66.3945 64.6609 67.5315 62.9036 67.5315 60.8781C67.5315 59.0556 66.6109 57.4502 65.2138 56.5105C65.2073 56.6118 65.1717 56.7123 65.1053 56.7984C64.0652 58.1473 62.8897 58.9961 61.5956 59.3434C61.5718 59.4065 61.5485 59.4752 61.5263 59.5489C61.4161 59.9162 61.3587 60.3255 61.3799 60.7644C61.3975 61.1304 61.4697 61.5019 61.6047 61.8768C61.7027 62.1491 61.5636 62.45 61.2941 62.549C61.0245 62.648 60.7265 62.5075 60.6285 62.2353C60.4573 61.7598 60.365 61.2847 60.3423 60.8154C60.3202 60.356 60.3648 59.9216 60.4592 59.5194C59.1521 59.579 57.7398 59.1758 56.2373 58.3091C55.9882 58.1654 55.9016 57.8451 56.0439 57.5936C56.1862 57.342 56.5034 57.2546 56.7525 57.3983L56.8445 57.4508C59.8767 59.161 62.302 58.5998 64.2927 56.0178C64.7015 55.284 64.9346 54.4372 64.9346 53.5354C64.9346 51.3607 63.5788 49.5058 61.6743 48.7858ZM53.7115 66.4579C53.605 66.1889 53.7346 65.8837 54.001 65.7761C54.2578 65.6725 54.548 65.7904 54.6639 66.0402L54.676 66.0683L54.6983 66.1153C54.7439 66.2065 54.8116 66.3162 54.9026 66.4314C55.0521 66.6209 55.2351 66.7858 55.4537 66.912C55.9881 67.2203 56.6854 67.2753 57.6041 66.9664C58.3576 66.474 59.2951 66.2393 60.4064 66.2717C60.6931 66.2801 60.9188 66.5216 60.9106 66.8112C60.9023 67.1007 60.6631 67.3286 60.3764 67.3203C58.3324 67.2606 57.1273 68.2413 56.6389 70.3796C56.5744 70.6619 56.2956 70.8379 56.0161 70.7728C55.7366 70.7077 55.5623 70.4261 55.6267 70.1439C55.7975 69.3963 56.0528 68.7538 56.3899 68.219C55.8491 68.2057 55.3645 68.0686 54.9384 67.8227C54.3405 67.4777 53.9576 66.9927 53.7416 66.5268L53.7367 66.5162L53.7115 66.4579ZM56.0786 49.5141C55.7918 49.5209 55.5648 49.7612 55.5716 50.0508C55.5934 50.9912 55.7943 51.7988 56.1682 52.4673C55.2828 52.5306 54.4182 53.0019 53.6315 53.949C53.4471 54.1709 53.4758 54.5017 53.6956 54.6879C53.9153 54.874 54.2429 54.845 54.4273 54.6231C55.0691 53.8504 55.7066 53.5233 56.3335 53.5094C56.5852 53.5038 56.8262 53.5501 57.051 53.6347C57.1877 53.6861 57.3017 53.7449 57.3873 53.7994L57.4304 53.8281L57.4571 53.8472C57.4688 53.8551 57.4807 53.8624 57.4929 53.869C58.0815 54.2496 58.8022 54.5173 59.6509 54.6682C59.9334 54.7185 60.2027 54.5279 60.2524 54.2427C60.3022 53.9574 60.1135 53.6854 59.831 53.6352C59.1116 53.5072 58.5173 53.2908 58.0437 52.9815L57.9975 52.949L57.9445 52.9141C57.0749 52.2998 56.6407 51.3474 56.61 50.0262C56.6033 49.7366 56.3654 49.5073 56.0786 49.5141Z" fill="url(#paint1_linear_2721_12581)"/>
</g>
<path d="M95.9819 58.1018H90.7948C90.758 57.6726 90.6599 57.2833 90.5005 56.9338C90.3472 56.5843 90.1326 56.2839 89.8567 56.0325C89.5869 55.775 89.2589 55.5788 88.8726 55.4439C88.4864 55.3029 88.048 55.2324 87.5575 55.2324C86.6991 55.2324 85.9725 55.4408 85.3778 55.8578C84.7892 56.2747 84.3416 56.8725 84.035 57.6512C83.7346 58.4298 83.5844 59.3649 83.5844 60.4562C83.5844 61.6089 83.7377 62.5746 84.0442 63.3533C84.3569 64.1258 84.8076 64.7083 85.3962 65.1007C85.9848 65.487 86.693 65.6801 87.5207 65.6801C87.9928 65.6801 88.4159 65.6219 88.7899 65.5054C89.1639 65.3827 89.4888 65.208 89.7647 64.9811C90.0406 64.7543 90.2644 64.4814 90.4361 64.1626C90.6139 63.8377 90.7335 63.4728 90.7948 63.0682L95.9819 63.105C95.9206 63.902 95.6968 64.7144 95.3105 65.5422C94.9242 66.3637 94.3755 67.124 93.6642 67.823C92.9591 68.5158 92.0854 69.0738 91.0431 69.4968C90.0008 69.9199 88.7899 70.1314 87.4103 70.1314C85.6813 70.1314 84.1301 69.7605 82.7567 69.0186C81.3894 68.2767 80.3072 67.1853 79.5101 65.7445C78.7192 64.3036 78.3237 62.5409 78.3237 60.4562C78.3237 58.3593 78.7284 56.5935 79.5377 55.1588C80.3471 53.7179 81.4384 52.6296 82.8118 51.8939C84.1853 51.152 85.7181 50.781 87.4103 50.781C88.5998 50.781 89.6942 50.9435 90.6936 51.2685C91.693 51.5934 92.5698 52.0686 93.324 52.694C94.0781 53.3133 94.6851 54.0766 95.145 54.9841C95.6048 55.8915 95.8838 56.9307 95.9819 58.1018Z" fill="#0F0F0F"/>
<path d="M103.452 61.9278V69.8739H98.3754V51.0386H103.268V58.4329H103.415C103.734 57.5316 104.265 56.8296 105.006 56.3268C105.748 55.8179 106.64 55.5635 107.683 55.5635C108.682 55.5635 109.55 55.7903 110.285 56.244C111.027 56.6978 111.601 57.3231 112.005 58.1202C112.416 58.9173 112.618 59.8308 112.612 60.8609V69.8739H107.536V61.9278C107.542 61.2288 107.367 60.68 107.011 60.2815C106.662 59.883 106.162 59.6837 105.512 59.6837C105.101 59.6837 104.74 59.7757 104.427 59.9596C104.12 60.1374 103.881 60.3949 103.71 60.7321C103.544 61.0632 103.458 61.4618 103.452 61.9278Z" fill="#0F0F0F"/>
<path d="M119.055 70.0946C118.153 70.0946 117.356 69.9475 116.664 69.6532C115.977 69.3528 115.437 68.899 115.045 68.292C114.652 67.685 114.456 66.9125 114.456 65.9744C114.456 65.2019 114.588 64.5428 114.852 63.9971C115.115 63.4452 115.483 62.9946 115.955 62.6451C116.427 62.2956 116.976 62.0289 117.602 61.845C118.233 61.661 118.914 61.5415 119.643 61.4863C120.434 61.425 121.069 61.3514 121.547 61.2656C122.031 61.1736 122.381 61.0479 122.596 60.8885C122.81 60.7229 122.917 60.5053 122.917 60.2355V60.1987C122.917 59.8308 122.776 59.5488 122.494 59.3526C122.212 59.1564 121.851 59.0583 121.409 59.0583C120.925 59.0583 120.529 59.1656 120.223 59.3802C119.922 59.5887 119.741 59.9106 119.68 60.3459H115.008C115.069 59.4875 115.342 58.6966 115.827 57.9731C116.317 57.2434 117.031 56.661 117.969 56.2256C118.908 55.7842 120.079 55.5635 121.483 55.5635C122.494 55.5635 123.402 55.683 124.205 55.9221C125.008 56.1551 125.692 56.4832 126.256 56.9062C126.82 57.3231 127.249 57.8136 127.544 58.3777C127.844 58.9357 127.994 59.5427 127.994 60.1987V69.8739H123.249V67.8874H123.138C122.856 68.4147 122.513 68.8408 122.108 69.1658C121.71 69.4907 121.253 69.7268 120.738 69.8739C120.229 70.0211 119.668 70.0946 119.055 70.0946ZM120.71 66.8941C121.096 66.8941 121.458 66.8144 121.795 66.655C122.139 66.4956 122.418 66.2656 122.632 65.9652C122.847 65.6648 122.954 65.3 122.954 64.8708V63.6936C122.819 63.7487 122.675 63.8009 122.522 63.8499C122.375 63.899 122.215 63.945 122.044 63.9879C121.878 64.0308 121.7 64.0706 121.51 64.1074C121.326 64.1442 121.133 64.1779 120.931 64.2086C120.539 64.2699 120.217 64.3711 119.965 64.5121C119.72 64.647 119.536 64.8156 119.413 65.0179C119.297 65.2141 119.239 65.4349 119.239 65.6801C119.239 66.0725 119.377 66.3729 119.653 66.5814C119.928 66.7899 120.281 66.8941 120.71 66.8941Z" fill="#0F0F0F"/>
<path d="M138.844 55.7474V59.4262H129.537V55.7474H138.844ZM131.34 52.3629H136.416V65.3306C136.416 65.5268 136.45 65.6924 136.517 65.8273C136.585 65.956 136.689 66.0541 136.83 66.1216C136.971 66.1829 137.152 66.2135 137.373 66.2135C137.526 66.2135 137.704 66.1951 137.906 66.1583C138.115 66.1216 138.268 66.0909 138.366 66.0664L139.102 69.6348C138.875 69.7022 138.55 69.785 138.127 69.8831C137.71 69.9812 137.213 70.0456 136.637 70.0763C135.472 70.1376 134.494 70.018 133.703 69.7176C132.912 69.411 132.318 68.9297 131.919 68.2737C131.52 67.6176 131.327 66.796 131.34 65.8089V52.3629Z" fill="#0F0F0F"/>
<path d="M153.074 57.2557C152.995 56.9307 152.869 56.6456 152.697 56.4004C152.526 56.149 152.311 55.9375 152.053 55.7658C151.802 55.588 151.508 55.4562 151.17 55.3703C150.839 55.2784 150.475 55.2324 150.076 55.2324C149.218 55.2324 148.485 55.4378 147.878 55.8486C147.277 56.2594 146.817 56.851 146.498 57.6236C146.186 58.3961 146.029 59.3281 146.029 60.4195C146.029 61.5231 146.18 62.4673 146.48 63.2521C146.78 64.0369 147.228 64.6378 147.823 65.0547C148.418 65.4716 149.156 65.6801 150.039 65.6801C150.818 65.6801 151.465 65.5667 151.98 65.3398C152.501 65.113 152.89 64.7911 153.148 64.3741C153.405 63.9572 153.534 63.4667 153.534 62.9026L154.417 62.9946H150.113V59.3526H158.464V61.9645C158.464 63.6813 158.099 65.1497 157.369 66.3699C156.646 67.5839 155.646 68.5158 154.371 69.1658C153.102 69.8095 151.646 70.1314 150.002 70.1314C148.169 70.1314 146.56 69.7421 145.174 68.9634C143.788 68.1847 142.706 67.075 141.928 65.6341C141.155 64.1933 140.769 62.4796 140.769 60.493C140.769 58.9357 141.005 57.5561 141.477 56.3544C141.955 55.1527 142.617 54.1379 143.463 53.3102C144.31 52.4764 145.288 51.8479 146.397 51.4248C147.507 50.9956 148.697 50.781 149.966 50.781C151.082 50.781 152.118 50.9405 153.074 51.2593C154.037 51.572 154.886 52.0196 155.622 52.602C156.364 53.1784 156.962 53.862 157.415 54.653C157.869 55.4439 158.145 56.3115 158.243 57.2557H153.074Z" fill="#0F0F0F"/>
<path d="M160.848 69.8739V51.0386H168.978C170.376 51.0386 171.599 51.3145 172.648 51.8663C173.696 52.4181 174.512 53.1937 175.094 54.1931C175.677 55.1925 175.968 56.3605 175.968 57.6972C175.968 59.046 175.667 60.2141 175.066 61.2012C174.472 62.1883 173.635 62.9486 172.556 63.482C171.483 64.0155 170.229 64.2822 168.794 64.2822H163.938V60.3091H167.764C168.365 60.3091 168.877 60.2049 169.3 59.9964C169.729 59.7818 170.057 59.4783 170.284 59.0859C170.517 58.6935 170.634 58.2306 170.634 57.6972C170.634 57.1576 170.517 56.6978 170.284 56.3176C170.057 55.9313 169.729 55.637 169.3 55.4347C168.877 55.2262 168.365 55.122 167.764 55.122H165.961V69.8739H160.848Z" fill="#0F0F0F"/>
<path d="M177.329 55.1588V51.0386H193.7V55.1588H188.034V69.8739H182.994V55.1588H177.329Z" fill="#0F0F0F"/>
<path d="M210.937 56.9246C210.888 56.3115 210.658 55.8332 210.247 55.4899C209.842 55.1465 209.226 54.9749 208.399 54.9749C207.871 54.9749 207.439 55.0392 207.102 55.168C206.771 55.2906 206.525 55.4592 206.366 55.6738C206.207 55.8884 206.124 56.1337 206.118 56.4096C206.105 56.6364 206.145 56.8418 206.237 57.0258C206.335 57.2036 206.489 57.3661 206.697 57.5132C206.906 57.6542 207.172 57.783 207.497 57.8995C207.822 58.016 208.208 58.1202 208.656 58.2122L210.201 58.5433C211.243 58.764 212.136 59.0552 212.877 59.417C213.619 59.7787 214.226 60.2049 214.698 60.6954C215.171 61.1797 215.517 61.7254 215.738 62.3324C215.965 62.9394 216.081 63.6016 216.087 64.319C216.081 65.5575 215.771 66.6059 215.158 67.4643C214.545 68.3227 213.668 68.9757 212.528 69.4233C211.394 69.8709 210.029 70.0946 208.435 70.0946C206.798 70.0946 205.37 69.8525 204.15 69.3681C202.936 68.8837 201.991 68.1388 201.317 67.1332C200.649 66.1216 200.311 64.8279 200.305 63.2521H205.161C205.192 63.8285 205.336 64.3128 205.593 64.7052C205.851 65.0976 206.213 65.395 206.679 65.5973C207.151 65.7997 207.712 65.9008 208.362 65.9008C208.907 65.9008 209.364 65.8334 209.732 65.6985C210.1 65.5636 210.379 65.3766 210.569 65.1375C210.759 64.8984 210.857 64.6255 210.863 64.319C210.857 64.0308 210.762 63.7794 210.578 63.5648C210.4 63.3441 210.106 63.1479 209.695 62.9762C209.285 62.7984 208.73 62.6329 208.031 62.4796L206.154 62.0749C204.487 61.7132 203.172 61.1092 202.209 60.2631C201.253 59.4109 200.777 58.249 200.783 56.7775C200.777 55.5819 201.096 54.5365 201.74 53.6413C202.39 52.74 203.288 52.038 204.435 51.5352C205.587 51.0324 206.909 50.781 208.399 50.781C209.919 50.781 211.234 51.0355 212.344 51.5444C213.454 52.0533 214.309 52.7707 214.91 53.6965C215.517 54.6162 215.824 55.6922 215.83 56.9246H210.937Z" fill="#0F0F0F"/>
<path d="M218.106 69.8739V55.7474H223.183V69.8739H218.106ZM220.644 54.2759C219.958 54.2759 219.369 54.049 218.878 53.5953C218.388 53.1416 218.143 52.5959 218.143 51.9583C218.143 51.3206 218.388 50.7749 218.878 50.3212C219.369 49.8675 219.958 49.6406 220.644 49.6406C221.337 49.6406 221.926 49.8675 222.41 50.3212C222.901 50.7749 223.146 51.3206 223.146 51.9583C223.146 52.5959 222.901 53.1416 222.41 53.5953C221.926 54.049 221.337 54.2759 220.644 54.2759Z" fill="#0F0F0F"/>
<path d="M230.883 70.0579C229.877 70.0579 228.951 69.7942 228.105 69.2669C227.265 68.7396 226.591 67.9395 226.082 66.8665C225.579 65.7935 225.328 64.4416 225.328 62.8107C225.328 61.1062 225.591 59.7205 226.119 58.6536C226.652 57.5868 227.339 56.805 228.179 56.3084C229.025 55.8118 229.914 55.5635 230.846 55.5635C231.545 55.5635 232.158 55.6861 232.685 55.9313C233.213 56.1705 233.654 56.4924 234.01 56.897C234.365 57.2956 234.635 57.7339 234.819 58.2122H234.893V51.0386H239.969V69.8739H234.929V67.5563H234.819C234.623 68.0345 234.341 68.4637 233.973 68.8439C233.611 69.2179 233.17 69.5152 232.649 69.736C232.134 69.9506 231.545 70.0579 230.883 70.0579ZM232.759 66.1583C233.225 66.1583 233.623 66.0235 233.955 65.7537C234.292 65.4778 234.549 65.0915 234.727 64.5949C234.911 64.0921 235.003 63.4974 235.003 62.8107C235.003 62.1117 234.911 61.5139 234.727 61.0173C234.549 60.5145 234.292 60.1313 233.955 59.8676C233.623 59.5979 233.225 59.463 232.759 59.463C232.293 59.463 231.894 59.5979 231.563 59.8676C231.238 60.1313 230.987 60.5145 230.809 61.0173C230.638 61.5139 230.552 62.1117 230.552 62.8107C230.552 63.5096 230.638 64.1105 230.809 64.6133C230.987 65.1099 231.238 65.4931 231.563 65.7629C231.894 66.0265 232.293 66.1583 232.759 66.1583Z" fill="#0F0F0F"/>
<path d="M249.231 70.1314C247.722 70.1314 246.423 69.8433 245.331 69.2669C244.246 68.6844 243.409 67.8506 242.82 66.7653C242.238 65.674 241.947 64.368 241.947 62.8474C241.947 61.3882 242.241 60.1129 242.83 59.0215C243.418 57.9301 244.249 57.081 245.322 56.474C246.395 55.867 247.661 55.5635 249.12 55.5635C250.187 55.5635 251.153 55.729 252.017 56.0601C252.882 56.3912 253.621 56.8725 254.234 57.504C254.847 58.1294 255.319 58.8897 255.65 59.7849C255.981 60.68 256.147 61.6886 256.147 62.8107V63.9879H243.529V61.192H251.475C251.469 60.7873 251.364 60.4317 251.162 60.1251C250.966 59.8125 250.699 59.5703 250.362 59.3986C250.031 59.2208 249.654 59.1319 249.231 59.1319C248.82 59.1319 248.443 59.2208 248.099 59.3986C247.756 59.5703 247.48 59.8094 247.272 60.116C247.069 60.4225 246.962 60.7812 246.95 61.192V64.2086C246.95 64.6623 247.045 65.067 247.235 65.4226C247.425 65.7782 247.698 66.0572 248.054 66.2595C248.409 66.4618 248.838 66.563 249.341 66.563C249.691 66.563 250.009 66.514 250.298 66.4159C250.592 66.3178 250.843 66.1767 251.052 65.9928C251.26 65.8027 251.413 65.5759 251.512 65.3122H256.147C255.987 66.2932 255.61 67.1455 255.016 67.869C254.421 68.5863 253.633 69.1443 252.652 69.5428C251.677 69.9352 250.537 70.1314 249.231 70.1314Z" fill="#0F0F0F"/>
<path d="M258.145 69.8739V51.0386H263.222V58.2122H263.295C263.479 57.7339 263.749 57.2956 264.104 56.897C264.46 56.4924 264.902 56.1705 265.429 55.9313C265.956 55.6861 266.569 55.5635 267.268 55.5635C268.2 55.5635 269.086 55.8118 269.926 56.3084C270.772 56.805 271.459 57.5868 271.986 58.6536C272.52 59.7205 272.786 61.1062 272.786 62.8107C272.786 64.4416 272.532 65.7935 272.023 66.8665C271.52 67.9395 270.846 68.7396 270 69.2669C269.16 69.7942 268.237 70.0579 267.231 70.0579C266.569 70.0579 265.978 69.9506 265.456 69.736C264.941 69.5152 264.5 69.2179 264.132 68.8439C263.77 68.4637 263.491 68.0345 263.295 67.5563H263.185V69.8739H258.145ZM263.111 62.8107C263.111 63.4974 263.2 64.0921 263.378 64.5949C263.562 65.0915 263.819 65.4778 264.15 65.7537C264.488 66.0235 264.889 66.1583 265.355 66.1583C265.821 66.1583 266.217 66.0265 266.542 65.7629C266.873 65.4931 267.124 65.1099 267.296 64.6133C267.474 64.1105 267.563 63.5096 267.563 62.8107C267.563 62.1117 267.474 61.5139 267.296 61.0173C267.124 60.5145 266.873 60.1313 266.542 59.8676C266.217 59.5979 265.821 59.463 265.355 59.463C264.889 59.463 264.488 59.5979 264.15 59.8676C263.819 60.1313 263.562 60.5145 263.378 61.0173C263.2 61.5139 263.111 62.1117 263.111 62.8107Z" fill="#0F0F0F"/>
<path d="M278.847 70.0946C277.946 70.0946 277.149 69.9475 276.456 69.6532C275.769 69.3528 275.23 68.899 274.837 68.292C274.445 67.685 274.249 66.9125 274.249 65.9744C274.249 65.2019 274.381 64.5428 274.644 63.9971C274.908 63.4452 275.276 62.9946 275.748 62.6451C276.22 62.2956 276.769 62.0289 277.394 61.845C278.026 61.661 278.706 61.5415 279.436 61.4863C280.227 61.425 280.861 61.3514 281.34 61.2656C281.824 61.1736 282.173 61.0479 282.388 60.8885C282.603 60.7229 282.71 60.5053 282.71 60.2355V60.1987C282.71 59.8308 282.569 59.5488 282.287 59.3526C282.005 59.1564 281.643 59.0583 281.202 59.0583C280.717 59.0583 280.322 59.1656 280.015 59.3802C279.715 59.5887 279.534 59.9106 279.473 60.3459H274.801C274.862 59.4875 275.135 58.6966 275.619 57.9731C276.11 57.2434 276.824 56.661 277.762 56.2256C278.7 55.7842 279.871 55.5635 281.275 55.5635C282.287 55.5635 283.194 55.683 283.997 55.9221C284.801 56.1551 285.484 56.4832 286.048 56.9062C286.612 57.3231 287.042 57.8136 287.336 58.3777C287.636 58.9357 287.787 59.5427 287.787 60.1987V69.8739H283.041V67.8874H282.931C282.649 68.4147 282.305 68.8408 281.901 69.1658C281.502 69.4907 281.045 69.7268 280.53 69.8739C280.021 70.0211 279.46 70.0946 278.847 70.0946ZM280.503 66.8941C280.889 66.8941 281.251 66.8144 281.588 66.655C281.931 66.4956 282.21 66.2656 282.425 65.9652C282.639 65.6648 282.747 65.3 282.747 64.8708V63.6936C282.612 63.7487 282.468 63.8009 282.314 63.8499C282.167 63.899 282.008 63.945 281.836 63.9879C281.671 64.0308 281.493 64.0706 281.303 64.1074C281.119 64.1442 280.926 64.1779 280.723 64.2086C280.331 64.2699 280.009 64.3711 279.758 64.5121C279.512 64.647 279.328 64.8156 279.206 65.0179C279.089 65.2141 279.031 65.4349 279.031 65.6801C279.031 66.0725 279.169 66.3729 279.445 66.5814C279.721 66.7899 280.073 66.8941 280.503 66.8941Z" fill="#0F0F0F"/>
<path d="M290.212 69.8739V55.7474H295.142V58.4329H295.289C295.547 57.4396 295.954 56.7131 296.512 56.2532C297.076 55.7934 297.735 55.5635 298.49 55.5635C298.71 55.5635 298.928 55.5819 299.143 55.6186C299.363 55.6493 299.575 55.6953 299.777 55.7566V60.0884C299.526 60.0025 299.216 59.9381 298.848 59.8952C298.48 59.8523 298.165 59.8308 297.901 59.8308C297.404 59.8308 296.957 59.9443 296.558 60.1711C296.166 60.3919 295.856 60.7046 295.629 61.1092C295.402 61.5078 295.289 61.9768 295.289 62.5164V69.8739H290.212Z" fill="#0F0F0F"/>
<path opacity="0.3" d="M26 79L28.1418 84.07C29.0537 86.2285 30.7715 87.9463 32.93 88.8582L38 91L32.93 93.1418C30.7715 94.0537 29.0537 95.7715 28.1418 97.93L26 103L23.8582 97.93C22.9463 95.7715 21.2285 94.0537 19.07 93.1418L14 91L19.07 88.8582C21.2285 87.9463 22.9463 86.2285 23.8582 84.07L26 79Z" fill="#8A57EA"/>
<path opacity="0.3" d="M305 28L306.845 32.3669C307.757 34.5255 309.474 36.2433 311.633 37.1552L316 39L311.633 40.8448C309.474 41.7567 307.757 43.4745 306.845 45.6331L305 50L303.155 45.6331C302.243 43.4745 300.526 41.7567 298.367 40.8448L294 39L298.367 37.1552C300.526 36.2433 302.243 34.5255 303.155 32.3669L305 28Z" fill="#8A57EA"/>
<path opacity="0.1" d="M61 17L61.6568 18.5549C62.5687 20.7135 64.2865 22.4313 66.4451 23.3432L68 24L66.4451 24.6568C64.2865 25.5687 62.5687 27.2865 61.6568 29.4451L61 31L60.3432 29.4451C59.4313 27.2865 57.7135 25.5687 55.5549 24.6568L54 24L55.5549 23.3432C57.7135 22.4313 59.4313 20.7135 60.3432 18.5549L61 17Z" fill="#8A57EA"/>
<path d="M315 85L316.548 88.6639C317.46 90.8225 319.177 92.5403 321.336 93.4522L325 95L321.336 96.5478C319.177 97.4597 317.46 99.1775 316.548 101.336L315 105L313.452 101.336C312.54 99.1775 310.823 97.4597 308.664 96.5478L305 95L308.664 93.4522C310.823 92.5403 312.54 90.8225 313.452 88.6639L315 85Z" fill="white"/>
<defs>
<linearGradient id="paint0_linear_2721_12581" x1="303.399" y1="120" x2="276.185" y2="22.914" gradientUnits="userSpaceOnUse">
<stop stop-color="#E7E2F9"/>
<stop offset="1" stop-color="#FDFCFF"/>
</linearGradient>
<linearGradient id="paint1_linear_2721_12581" x1="50.2264" y1="33.3169" x2="23.1652" y2="63.1856" gradientUnits="userSpaceOnUse">
<stop stop-color="#32C5FF"/>
<stop offset="0.540947" stop-color="#B620E0"/>
<stop offset="1" stop-color="#F7B500"/>
</linearGradient>
<clipPath id="clip0_2721_12581">
<rect width="34.5315" height="34.5315" fill="white" transform="translate(33 43)"/>
</clipPath>
</defs>
</svg>
