<svg width="1440" height="800" viewBox="0 0 1440 800" fill="none" xmlns="http://www.w3.org/2000/svg">
<mask id="mask0_12293_4058" style="mask-type:alpha" maskUnits="userSpaceOnUse" x="0" y="0" width="1440" height="800">
<rect width="1440" height="800" fill="#D9D9D9"/>
</mask>
<g mask="url(#mask0_12293_4058)">
<g opacity="0.3" filter="url(#filter0_f_12293_4058)">
<path d="M217.642 -4.77285C135.892 9.24124 114.131 -83.121 113.468 -131.054C92.8744 -135.119 11.8571 -95.0522 -147.459 97.7324C-346.605 338.713 -11.0806 209.072 95.615 246.233C202.311 283.394 319.829 -22.2905 217.642 -4.77285Z" fill="#7641E7"/>
</g>
<g opacity="0.3" filter="url(#filter1_f_12293_4058)">
<path d="M1474.64 39.2271C1392.89 53.2412 1371.13 -39.121 1370.47 -87.0539C1349.87 -91.1187 1268.86 -51.0522 1109.54 141.732C910.395 382.713 1245.92 253.072 1352.61 290.233C1459.31 327.394 1576.83 21.7095 1474.64 39.2271Z" fill="#7641E7"/>
</g>
<g opacity="0.3" filter="url(#filter2_f_12293_4058)">
<path d="M1029.51 710.1C778.984 750.014 525.018 647.543 429.352 591.319C351.438 592.434 154.174 662.8 -11.5686 935.338C-218.747 1276.01 668.926 1027.31 1103.97 1040.48C1539.01 1053.65 1342.67 660.208 1029.51 710.1Z" fill="#2C73F8"/>
</g>
<g opacity="0.4" filter="url(#filter3_f_12293_4058)">
<path d="M768.077 770.378C817.029 814.285 862.699 741.7 920.527 668.9C1146.56 697.876 1340 770.377 1340 770.377C1131.1 440.709 1010.95 555.067 920.527 668.9C813.758 655.213 699.716 651.237 595.356 669.201C592.37 669.715 589.365 670.256 586.341 670.824C470.824 611.91 319.214 592.024 128.999 847.815C128.999 847.815 395.05 706.718 586.341 670.824C662.278 709.551 722.619 765.144 768.077 770.378Z" fill="url(#paint0_linear_12293_4058)"/>
</g>
</g>
<defs>
<filter id="filter0_f_12293_4058" x="-509.393" y="-431.325" width="1066.29" height="980.694" filterUnits="userSpaceOnUse" color-interpolation-filters="sRGB">
<feFlood flood-opacity="0" result="BackgroundImageFix"/>
<feBlend mode="normal" in="SourceGraphic" in2="BackgroundImageFix" result="shape"/>
<feGaussianBlur stdDeviation="150" result="effect1_foregroundBlur_12293_4058"/>
</filter>
<filter id="filter1_f_12293_4058" x="747.607" y="-387.325" width="1066.29" height="980.694" filterUnits="userSpaceOnUse" color-interpolation-filters="sRGB">
<feFlood flood-opacity="0" result="BackgroundImageFix"/>
<feBlend mode="normal" in="SourceGraphic" in2="BackgroundImageFix" result="shape"/>
<feGaussianBlur stdDeviation="150" result="effect1_foregroundBlur_12293_4058"/>
</filter>
<filter id="filter2_f_12293_4058" x="-342.436" y="291.319" width="1998.59" height="1124.49" filterUnits="userSpaceOnUse" color-interpolation-filters="sRGB">
<feFlood flood-opacity="0" result="BackgroundImageFix"/>
<feBlend mode="normal" in="SourceGraphic" in2="BackgroundImageFix" result="shape"/>
<feGaussianBlur stdDeviation="150" result="effect1_foregroundBlur_12293_4058"/>
</filter>
<filter id="filter3_f_12293_4058" x="89" y="513.291" width="1291" height="374.524" filterUnits="userSpaceOnUse" color-interpolation-filters="sRGB">
<feFlood flood-opacity="0" result="BackgroundImageFix"/>
<feBlend mode="normal" in="SourceGraphic" in2="BackgroundImageFix" result="shape"/>
<feGaussianBlur stdDeviation="20" result="effect1_foregroundBlur_12293_4058"/>
</filter>
<linearGradient id="paint0_linear_12293_4058" x1="167.41" y1="785.899" x2="1438.21" y2="709.334" gradientUnits="userSpaceOnUse">
<stop stop-color="#4BC9FF" stop-opacity="0.78"/>
<stop offset="0.689877" stop-color="#B4CEFF" stop-opacity="0"/>
<stop offset="1" stop-color="#5B57FF"/>
</linearGradient>
</defs>
</svg>
